<svg width="14" height="14" viewBox="0 0 14 14" fill="none" xmlns="http://www.w3.org/2000/svg">
<path d="M11.142 12.833C11.0837 12.833 11.0302 12.8233 10.9816 12.8038C10.933 12.7844 10.8844 12.7504 10.8357 12.7018L7.30658 9.17259C7.25796 9.12398 7.22394 9.07537 7.20449 9.02676C7.18505 8.97815 7.17533 8.92467 7.17533 8.86634C7.17533 8.80801 7.18505 8.75454 7.20449 8.70592C7.22394 8.65731 7.25796 8.6087 7.30658 8.56009L8.54616 7.32051C8.59477 7.2719 8.64338 7.23787 8.69199 7.21842C8.7406 7.19898 8.79408 7.18926 8.85241 7.18926C8.91074 7.18926 8.96421 7.19898 9.01283 7.21842C9.06144 7.23787 9.11005 7.2719 9.15866 7.32051L12.6878 10.8497C12.7364 10.8983 12.7705 10.9469 12.7899 10.9955C12.8094 11.0441 12.8191 11.0976 12.8191 11.1559C12.8191 11.2143 12.8094 11.2677 12.7899 11.3163C12.7705 11.365 12.7364 11.4136 12.6878 11.4622L11.4482 12.7018C11.3996 12.7504 11.351 12.7844 11.3024 12.8038C11.2538 12.8233 11.2003 12.833 11.142 12.833ZM11.142 11.783L11.7691 11.1559L8.85241 8.23926L8.22533 8.86634L11.142 11.783ZM2.84408 12.833C2.78574 12.833 2.72984 12.8233 2.67637 12.8038C2.6229 12.7844 2.57185 12.7504 2.52324 12.7018L1.29824 11.4768C1.24963 11.4281 1.2156 11.3771 1.19616 11.3236C1.17671 11.2702 1.16699 11.2143 1.16699 11.1559C1.16699 11.0976 1.17671 11.0441 1.19616 10.9955C1.2156 10.9469 1.24963 10.8983 1.29824 10.8497L4.57949 7.56842H5.81908L6.37324 7.01426L3.82116 4.46217H2.98991L1.16699 2.63926L2.61074 1.19551L4.43366 3.01842V3.84967L6.98574 6.40176L8.88158 4.50592L7.90449 3.52884L8.72116 2.71217H7.07324L6.81074 2.44967L8.67741 0.583008L8.93991 0.845508V2.49342L9.75658 1.67676L12.2212 4.14134C12.367 4.28717 12.4812 4.45488 12.5639 4.64447C12.6465 4.83405 12.6878 5.03579 12.6878 5.24967C12.6878 5.44412 12.6562 5.63127 12.593 5.81113C12.5298 5.99099 12.4399 6.15384 12.3232 6.29967L11.0837 5.06009L10.267 5.87676L9.50866 5.11842L6.43158 8.19551V9.42051L3.15033 12.7018C3.10171 12.7504 3.0531 12.7844 3.00449 12.8038C2.95588 12.8233 2.90241 12.833 2.84408 12.833ZM2.84408 11.783L5.76074 8.86634V8.23926H5.13366L2.21699 11.1559L2.84408 11.783ZM2.84408 11.783L2.21699 11.1559L2.53783 11.4622L2.84408 11.783Z" fill="#667085"/>
</svg>
