<svg width="14" height="16" viewBox="0 0 14 16" fill="none" xmlns="http://www.w3.org/2000/svg">
<path d="M5.1499 12.5C4.7374 12.5 4.38428 12.3531 4.09053 12.0594C3.79678 11.7656 3.6499 11.4125 3.6499 11V2C3.6499 1.5875 3.79678 1.23438 4.09053 0.940625C4.38428 0.646875 4.7374 0.5 5.1499 0.5H11.8999C12.3124 0.5 12.6655 0.646875 12.9593 0.940625C13.253 1.23438 13.3999 1.5875 13.3999 2V11C13.3999 11.4125 13.253 11.7656 12.9593 12.0594C12.6655 12.3531 12.3124 12.5 11.8999 12.5H5.1499ZM5.1499 11H11.8999V2H5.1499V11ZM2.1499 15.5C1.7374 15.5 1.38428 15.3531 1.09053 15.0594C0.796777 14.7656 0.649902 14.4125 0.649902 14V3.5H2.1499V14H10.3999V15.5H2.1499Z" fill="#667085"/>
</svg>
