<svg width="24" height="24" viewBox="0 0 24 24" fill="none" xmlns="http://www.w3.org/2000/svg">
<path d="M5.90005 18.7499L7.52505 20.3749C7.67505 20.5249 7.74588 20.6999 7.73755 20.8999C7.72922 21.0999 7.6563 21.2759 7.5188 21.4279C7.3688 21.5799 7.19072 21.659 6.98455 21.6654C6.77822 21.6717 6.60005 21.5999 6.45005 21.4499L3.52505 18.5249C3.44172 18.4415 3.38338 18.3571 3.35005 18.2716C3.31672 18.186 3.30005 18.0943 3.30005 17.9966C3.30005 17.8988 3.31672 17.8082 3.35005 17.7249C3.38338 17.6415 3.44172 17.5582 3.52505 17.4749L6.45005 14.5499C6.60122 14.3999 6.78063 14.329 6.9883 14.3374C7.19613 14.3457 7.37505 14.4249 7.52505 14.5749C7.66255 14.7249 7.73447 14.8999 7.7408 15.0999C7.74697 15.2999 7.67505 15.4749 7.52505 15.6249L5.90005 17.2499H17.5V13.9999C17.5 13.7874 17.5724 13.6092 17.717 13.4654C17.8615 13.3217 18.0407 13.2499 18.2545 13.2499C18.4682 13.2499 18.6459 13.3217 18.7875 13.4654C18.9292 13.6092 19 13.7874 19 13.9999V17.2499C19 17.6624 18.8532 18.0155 18.5595 18.3091C18.2657 18.603 17.9125 18.7499 17.5 18.7499H5.90005ZM18.1 6.74987H6.50005V9.99987C6.50005 10.2124 6.42772 10.3905 6.28305 10.5341C6.13855 10.678 5.95938 10.7499 5.74555 10.7499C5.53188 10.7499 5.35422 10.678 5.21255 10.5341C5.07088 10.3905 5.00005 10.2124 5.00005 9.99987V6.74987C5.00005 6.33737 5.14697 5.9842 5.4408 5.69037C5.73447 5.3967 6.08755 5.24987 6.50005 5.24987H18.1L16.475 3.62487C16.325 3.47487 16.2542 3.29987 16.2625 3.09987C16.2709 2.89987 16.3438 2.72387 16.4813 2.57187C16.6313 2.41987 16.8095 2.3407 17.0158 2.33437C17.222 2.32804 17.4 2.39987 17.55 2.54987L20.475 5.47487C20.5584 5.5582 20.6167 5.64262 20.65 5.72812C20.6834 5.81379 20.7 5.90545 20.7 6.00312C20.7 6.10095 20.6834 6.19154 20.65 6.27487C20.6167 6.3582 20.5584 6.44154 20.475 6.52487L17.55 9.44987C17.3989 9.59987 17.2195 9.6707 17.0118 9.66237C16.804 9.65404 16.625 9.57487 16.475 9.42487C16.3375 9.27487 16.2657 9.09987 16.2595 8.89987C16.2532 8.69987 16.325 8.52487 16.475 8.37487L18.1 6.74987Z" fill="#1D2939"/>
</svg>
