<svg width="37" height="37" viewBox="0 0 37 37" fill="none" xmlns="http://www.w3.org/2000/svg">
<path d="M18.3796 17.1011C22.1771 17.1011 25.4049 16.5062 28.0632 15.3163C30.7214 14.1264 32.0505 12.6961 32.0505 11.0252C32.0505 9.35428 30.7214 7.9239 28.0632 6.73403C25.4049 5.54416 22.1771 4.94922 18.3796 4.94922C14.5822 4.94922 11.3543 5.54416 8.69608 6.73403C6.03785 7.9239 4.70874 9.35428 4.70874 11.0252C4.70874 12.6961 6.03785 14.1264 8.69608 15.3163C11.3543 16.5062 14.5822 17.1011 18.3796 17.1011ZM18.3796 20.8986C19.4176 20.8986 20.7151 20.791 22.272 20.5758C23.829 20.3606 25.329 20.0125 26.772 19.5315C28.2151 19.0505 29.4556 18.4239 30.4935 17.6517C31.5315 16.8796 32.0505 15.9366 32.0505 14.8226V18.6201C32.0505 19.734 31.5315 20.6771 30.4935 21.4492C29.4556 22.2214 28.2151 22.848 26.772 23.329C25.329 23.81 23.829 24.1581 22.272 24.3733C20.7151 24.5885 19.4176 24.6961 18.3796 24.6961C17.3417 24.6961 16.0442 24.5885 14.4872 24.3733C12.9303 24.1581 11.4303 23.81 9.98722 23.329C8.54418 22.848 7.30368 22.2214 6.2657 21.4492C5.22773 20.6771 4.70874 19.734 4.70874 18.6201V14.8226C4.70874 15.9366 5.22773 16.8796 6.2657 17.6517C7.30368 18.4239 8.54418 19.0505 9.98722 19.5315C11.4303 20.0125 12.9303 20.3606 14.4872 20.5758C16.0442 20.791 17.3417 20.8986 18.3796 20.8986ZM18.3796 28.4935C19.4176 28.4935 20.7151 28.3859 22.272 28.1707C23.829 27.9555 25.329 27.6074 26.772 27.1264C28.2151 26.6454 29.4556 26.0188 30.4935 25.2467C31.5315 24.4745 32.0505 23.5315 32.0505 22.4176V26.215C32.0505 27.329 31.5315 28.272 30.4935 29.0442C29.4556 29.8163 28.2151 30.4429 26.772 30.9239C25.329 31.4049 23.829 31.753 22.272 31.9682C20.7151 32.1834 19.4176 32.291 18.3796 32.291C17.3417 32.291 16.0442 32.1834 14.4872 31.9682C12.9303 31.753 11.4303 31.4049 9.98722 30.9239C8.54418 30.4429 7.30368 29.8163 6.2657 29.0442C5.22773 28.272 4.70874 27.329 4.70874 26.215V22.4176C4.70874 23.5315 5.22773 24.4745 6.2657 25.2467C7.30368 26.0188 8.54418 26.6454 9.98722 27.1264C11.4303 27.6074 12.9303 27.9555 14.4872 28.1707C16.0442 28.3859 17.3417 28.4935 18.3796 28.4935Z" fill="white"/>
</svg>
