<svg width="171" height="92" viewBox="0 0 171 92" fill="none" xmlns="http://www.w3.org/2000/svg">
<rect x="0.5" width="170.5" height="92" rx="8" fill="url(#paint0_linear_5648_4703)"/>
<path d="M20.75 75L42.4647 53.4204C43.9635 51.9308 45.9908 51.0948 48.1038 51.0948H63.6246C66.351 51.0948 68.8896 49.7064 70.3605 47.4109L80.4376 31.684C81.9084 29.3884 84.4471 28 87.1734 28H104.644C107.37 28 109.909 29.3884 111.38 31.684L130.803 61.9971C132.274 64.2926 134.812 65.681 137.539 65.681H155.75" stroke="#F79009" stroke-width="1.5"/>
<path d="M20.75 48.4176L43.2885 61.8762C47.0965 64.1501 52.0275 62.8921 54.2808 59.0719L65.75 39.6264L71.4061 28.6927C74.2792 23.1388 82.1272 22.8802 85.3598 28.2329L96.1941 46.1731C97.6425 48.5716 100.24 50.0375 103.042 50.0375H133.256H155.75" stroke="#475467" stroke-width="1.5"/>
<defs>
<linearGradient id="paint0_linear_5648_4703" x1="85.75" y1="0" x2="85.75" y2="92" gradientUnits="userSpaceOnUse">
<stop stop-color="white"/>
<stop offset="1" stop-color="#F2F4F7"/>
</linearGradient>
</defs>
</svg>
