<svg width="32" height="34" viewBox="0 0 32 34" fill="none" xmlns="http://www.w3.org/2000/svg">
<path d="M31.0213 7.74715C31.2347 7.87038 31.3662 8.09811 31.3662 8.34456V25.6564C31.3662 25.9029 31.2347 26.1306 31.0213 26.2538L18.8746 33.2668C18.4147 33.5324 17.8398 33.2005 17.8398 32.6694V28.2762C17.8398 28.0298 17.9713 27.802 18.1848 27.6788L25.8357 23.2616C26.0492 23.1384 26.1807 22.9107 26.1807 22.6642V11.3367C26.1807 11.0903 26.0492 10.8626 25.8358 10.7393L18.1847 6.32122C17.9713 6.19798 17.8398 5.97026 17.8398 5.72383V1.33156C17.8398 0.80052 18.4147 0.468623 18.8746 0.734145L31.0213 7.74715ZM13.5244 5.7238C13.5244 5.97025 13.3929 6.19798 13.1795 6.32121L5.52752 10.7393C5.31409 10.8626 5.18262 11.0903 5.18262 11.3367V22.6642C5.18262 22.9107 5.31412 23.1384 5.52757 23.2616L13.1795 27.6788C13.3929 27.802 13.5244 28.0298 13.5244 28.2762V32.6675C13.5244 33.1985 12.9496 33.5304 12.4897 33.2649L0.345899 26.2538C0.132461 26.1306 0.000976562 25.9029 0.000976562 25.6564V8.34457C0.000976562 8.09811 0.13246 7.87038 0.345899 7.74715L12.4897 0.736072C12.9496 0.47056 13.5244 0.802457 13.5244 1.33349V5.7238ZM20.829 13.6309C21.0424 13.7542 21.1738 13.9819 21.1738 14.2283V19.7717C21.1738 20.0181 21.0424 20.2458 20.829 20.3691L16.0276 23.1416C15.8141 23.2649 15.5511 23.2649 15.3377 23.1416L10.5363 20.3691C10.3229 20.2458 10.1914 20.0181 10.1914 19.7717V14.2283C10.1914 13.9819 10.3229 13.7542 10.5363 13.6309L15.3377 10.8584C15.5511 10.7351 15.8141 10.7351 16.0276 10.8584L20.829 13.6309Z" fill="#FFB000"/>
<path d="M16.028 23.8848C15.8146 24.0081 15.5516 24.0081 15.3382 23.8848L9.89264 20.7409C9.6792 20.6176 9.54772 20.3899 9.54772 20.1435L9.54772 13.8555C9.54772 13.6091 9.6792 13.3813 9.89264 13.2581L15.3382 10.1141C15.5516 9.99089 15.8146 9.99089 16.028 10.1141L21.4735 13.2581C21.687 13.3813 21.8184 13.6091 21.8184 13.8555L21.8184 20.1435C21.8184 20.3899 21.687 20.6176 21.4735 20.7409L16.028 23.8848Z" fill="#FFB000"/>
</svg>
