<svg width="22" height="22" viewBox="0 0 22 22" fill="none" xmlns="http://www.w3.org/2000/svg">
<path d="M17.0859 19.5703C17.0001 19.5703 16.9216 19.556 16.8501 19.5275C16.7787 19.4989 16.7073 19.4489 16.6359 19.3775L11.4501 14.1917C11.3787 14.1203 11.3287 14.0489 11.3001 13.9775C11.2716 13.906 11.2573 13.8275 11.2573 13.7417C11.2573 13.656 11.2716 13.5775 11.3001 13.506C11.3287 13.4346 11.3787 13.3632 11.4501 13.2917L13.2716 11.4703C13.343 11.3989 13.4144 11.3489 13.4859 11.3203C13.5573 11.2917 13.6359 11.2775 13.7216 11.2775C13.8073 11.2775 13.8859 11.2917 13.9573 11.3203C14.0287 11.3489 14.1001 11.3989 14.1716 11.4703L19.3573 16.656C19.4287 16.7275 19.4787 16.7989 19.5073 16.8703C19.5359 16.9417 19.5501 17.0203 19.5501 17.106C19.5501 17.1917 19.5359 17.2703 19.5073 17.3417C19.4787 17.4132 19.4287 17.4846 19.3573 17.556L17.5359 19.3775C17.4644 19.4489 17.393 19.4989 17.3216 19.5275C17.2501 19.556 17.1716 19.5703 17.0859 19.5703ZM17.0859 18.0275L18.0073 17.106L13.7216 12.8203L12.8001 13.7417L17.0859 18.0275ZM4.893 19.5703C4.80728 19.5703 4.72514 19.556 4.64657 19.5275C4.568 19.4989 4.493 19.4489 4.42157 19.3775L2.62157 17.5775C2.55014 17.506 2.50014 17.431 2.47157 17.3525C2.443 17.2739 2.42871 17.1917 2.42871 17.106C2.42871 17.0203 2.443 16.9417 2.47157 16.8703C2.50014 16.7989 2.55014 16.7275 2.62157 16.656L7.443 11.8346H9.26443L10.0787 11.0203L6.32871 7.27031H5.10728L2.42871 4.59174L4.55014 2.47031L7.22871 5.14888V6.37031L10.9787 10.1203L13.7644 7.3346L12.3287 5.89888L13.5287 4.69888H11.1073L10.7216 4.31317L13.4644 1.57031L13.8501 1.95603V4.37746L15.0501 3.17746L18.6716 6.79888C18.8859 7.01317 19.0537 7.2596 19.1751 7.53817C19.2966 7.81674 19.3573 8.11317 19.3573 8.42746C19.3573 8.71317 19.3109 8.98817 19.218 9.25246C19.1251 9.51674 18.993 9.75603 18.8216 9.97031L17.0001 8.14888L15.8001 9.34888L14.6859 8.2346L10.1644 12.756V14.556L5.343 19.3775C5.27157 19.4489 5.20014 19.4989 5.12871 19.5275C5.05728 19.556 4.97871 19.5703 4.893 19.5703ZM4.893 18.0275L9.17871 13.7417V12.8203H8.25728L3.97157 17.106L4.893 18.0275ZM4.893 18.0275L3.97157 17.106L4.443 17.556L4.893 18.0275Z" fill="#F79009"/>
</svg>
